<?xml version="1.0" encoding="UTF-8"?>
<svg id="Ebene_1" data-name="Ebene 1" xmlns="http://www.w3.org/2000/svg" version="1.1" viewBox="0 0 9.2 17">
  <defs>
    <style>
      .cls-1 {
        fill: #fcc137;
        stroke-width: 0px;
      }
    </style>
  </defs>
  <path class="cls-1" d="M8.9,0c.2,0,.3.2.3.5,0,.8,0,1.6,0,2.4,0,.3-.1.4-.5.4-.6,0-1.1,0-1.7,0-.3,0-.6.1-.8.4,0,.1-.1.3-.1.5,0,.6,0,1.3,0,1.9,0,0,.1,0,.2,0,.8,0,1.5,0,2.3,0,.3,0,.5.1.5.5,0,.9,0,1.7,0,2.6,0,.3-.1.4-.4.4-.8,0-1.5,0-2.3,0,0,0-.1,0-.2,0,0,0,0,.1,0,.2,0,2.2,0,4.5,0,6.7,0,.4-.1.5-.5.5-.9,0-1.8,0-2.6,0-.3,0-.5-.1-.5-.5,0-2.2,0-4.5,0-6.7,0,0,0-.1,0-.2,0,0-.1,0-.2,0-.6,0-1.3,0-1.9,0-.3,0-.4-.1-.4-.4,0-.9,0-1.8,0-2.6,0-.3.1-.4.4-.4.6,0,1.3,0,1.9,0,0,0,.1,0,.2,0,0,0,0-.1,0-.2,0-.7,0-1.4,0-2.1,0-1,.3-1.9,1-2.6.6-.6,1.3-1,2.1-1.2C5.8,0,6,0,6.2,0c.9,0,1.8,0,2.7,0Z"/>
</svg>