<?xml version="1.0" encoding="UTF-8"?>
<svg id="Ebene_1" data-name="Ebene 1" xmlns="http://www.w3.org/2000/svg" version="1.1" viewBox="0 0 17.3 17.3">
  <defs>
    <style>
      .cls-1 {
        fill: #fcc137;
        stroke-width: 0px;
      }
    </style>
  </defs>
  <path class="cls-1" d="M8.7,17.3c-1.2,0-2.4,0-3.6,0C2.2,17.3,0,15.1,0,12.3c0-2.4,0-4.8,0-7.2C0,2.2,2.2,0,5,0c2.4,0,4.9,0,7.3,0,2.8,0,5,2.2,5,5,0,2.4,0,4.9,0,7.3,0,2.8-2.2,4.9-5,5-1.2,0-2.4,0-3.6,0ZM8.6,1.7c-1.2,0-2.4,0-3.6,0-2.1,0-3.4,1.3-3.4,3.4,0,2.4,0,4.8,0,7.2,0,2,1.3,3.3,3.3,3.4,2.4,0,4.8,0,7.2,0,2,0,3.3-1.3,3.3-3.3,0-2.4,0-4.8,0-7.2,0-2-1.3-3.3-3.3-3.3-1.2,0-2.4,0-3.6,0Z"/>
  <path class="cls-1" d="M13,8.7c0,2.4-1.9,4.3-4.3,4.3-2.4,0-4.3-1.9-4.3-4.3,0-2.4,1.9-4.3,4.3-4.3,2.4,0,4.3,1.9,4.3,4.3ZM11.3,8.7c0-1.4-1.2-2.6-2.6-2.6-1.4,0-2.6,1.2-2.6,2.6,0,1.4,1.2,2.6,2.6,2.6,1.4,0,2.6-1.2,2.6-2.6Z"/>
  <path class="cls-1" d="M14.3,4.1c0,.6-.5,1.1-1.1,1.1-.6,0-1.1-.5-1.1-1.1,0-.6.5-1,1.1-1.1.6,0,1.1.4,1.1,1.1Z"/>
</svg>